<?xml version="1.0" encoding="UTF-8"?>
<svg id="Layer_1" xmlns="http://www.w3.org/2000/svg" version="1.1" viewBox="0 0 650 650">
  <!-- Generator: Adobe Illustrator 30.5.1, SVG Export Plug-In . SVG Version: 2.1.4 Build 3)  -->
  <polygon points="243.1274 267.8064 443.4185 267.8064 407.6532 382.1936 207.3621 382.1936 243.1274 267.8064"/>
  <g>
    <polygon points="121.6375 0 328.6942 650 351.5284 650 144.4711 0 121.6375 0" fill="#e6e6e6"/>
    <polygon points="239.6954 0 446.7523 650 469.8619 650 262.8046 0 239.6954 0" fill="#e6e6e6"/>
    <polygon points="180.5822 0 387.6389 650 410.6417 650 203.5844 0 180.5822 0" fill="#e6e6e6"/>
    <polygon points="298.9156 0 505.9724 650 528.9753 650 321.9179 0 298.9156 0" fill="#e6e6e6"/>
    <polygon points="416.9736 0 624.0305 650 647.1401 650 440.0828 0 416.9736 0" fill="#e6e6e6"/>
    <polygon points="357.8604 0 564.9171 650 587.9199 650 380.8626 0 357.8604 0" fill="#e6e6e6"/>
    <polygon points="476.1938 0 650 545.6185 650 473.4075 499.1961 0 476.1938 0" fill="#e6e6e6"/>
    <polygon points="617.361 0 594.2518 0 650 175.0065 650 102.4612 617.361 0" fill="#e6e6e6"/>
    <polygon points="535.1385 0 650 360.5772 650 288.3669 558.1408 0 535.1385 0" fill="#e6e6e6"/>
    <polygon points="0 361.1049 92.0272 650 115.1369 650 0 288.5591 0 361.1049" fill="#e6e6e6"/>
    <polygon points="0 546.6756 32.9139 650 55.9167 650 0 474.4648 0 546.6756" fill="#e6e6e6"/>
    <polygon points="0 175.1988 151.2474 650 174.2502 650 0 102.9891 0 175.1988" fill="#e6e6e6"/>
    <polygon points="62.2486 0 269.3054 650 292.4151 650 85.3578 0 62.2486 0" fill="#e6e6e6"/>
    <polygon points="3.1353 0 210.1921 650 233.1949 650 26.1376 0 3.1353 0" fill="#e6e6e6"/>
  </g>
</svg>